<svg width="24" height="24" viewBox="0 0 24 24" fill="none" xmlns="http://www.w3.org/2000/svg">
<path d="M10.7195 20.4729L10.7191 20.4725L9.20698 19.0532C9.20698 19.0532 9.20697 19.0531 9.20697 19.0531C7.34083 17.2961 5.6748 15.5701 4.20885 13.8752C2.74423 12.1818 2.0125 10.3685 2.0125 8.4349C2.0125 6.89525 2.51511 5.60695 3.52011 4.56915C4.5251 3.53136 5.77249 3.0125 7.26314 3.0125C8.10993 3.0125 8.94646 3.21407 9.77285 3.61745C10.5986 4.02051 11.3376 4.67535 11.9898 5.58264L12 5.59676L12.0101 5.58264C12.6624 4.67535 13.4014 4.02051 14.2271 3.61745C15.0535 3.21407 15.8901 3.0125 16.7369 3.0125C18.2275 3.0125 19.4749 3.53136 20.4799 4.56915C21.4849 5.60695 21.9875 6.89525 21.9875 8.4349C21.9875 10.3894 21.2433 12.2229 19.7537 13.9358C18.2628 15.6502 16.6005 17.3616 14.7667 19.0698L14.7667 19.0699L13.2708 20.4725L13.2704 20.4729C13.0989 20.6499 12.8988 20.7799 12.6698 20.8628C12.4403 20.946 12.2137 20.9875 11.9899 20.9875C11.7661 20.9875 11.5412 20.946 11.315 20.8628C11.0895 20.7799 10.891 20.65 10.7195 20.4729ZM11.7789 19.2783L11.779 19.2784C11.842 19.3362 11.9158 19.3653 12 19.3653C12.0842 19.3653 12.158 19.3362 12.221 19.2784L12.2211 19.2783C13.0403 18.5077 13.9296 17.6736 14.8892 16.7762C15.849 15.8784 16.7403 14.9591 17.5631 14.0181C18.3861 13.0769 19.0701 12.13 19.6151 11.1774C20.1605 10.2242 20.4336 9.30995 20.4336 8.4349C20.4336 7.34495 20.0816 6.43592 19.3774 5.70874C18.6732 4.98154 17.7927 4.61795 16.7369 4.61795C15.9101 4.61795 15.1806 4.82724 14.5488 5.24611C13.9173 5.66475 13.3166 6.32298 12.7465 7.21996C12.6586 7.35763 12.5481 7.46056 12.4153 7.52915C12.282 7.59795 12.1437 7.63227 12 7.63227C11.8563 7.63227 11.7179 7.59795 11.5847 7.52915C11.4519 7.46056 11.3414 7.35763 11.2535 7.21996C10.6834 6.32298 10.0827 5.66475 9.45124 5.24611C8.81944 4.82724 8.08993 4.61795 7.26314 4.61795C6.20729 4.61795 5.3268 4.98154 4.62258 5.70874C3.91838 6.43592 3.56643 7.34495 3.56643 8.4349C3.56643 9.30995 3.83953 10.2242 4.38487 11.1774C4.92986 12.13 5.61389 13.0769 6.43689 14.0181C7.25973 14.9591 8.15105 15.8784 9.11085 16.7762C10.0704 17.6736 10.9597 18.5077 11.7789 19.2783Z" fill="black" stroke="black" stroke-width="0.025"/>
</svg>
