<svg width="16" height="16" viewBox="0 0 16 16" fill="none" xmlns="http://www.w3.org/2000/svg">
<path d="M7.71319 13.4471L7.71324 13.4471C7.81372 13.4841 7.90633 13.5 7.99341 13.5C8.0806 13.5 8.1751 13.484 8.2792 13.4463L8.27924 13.4463C8.3608 13.4167 8.43093 13.3716 8.49388 13.3066L8.50227 13.2979L8.51106 13.2896L9.50835 12.3546L9.50953 12.3535C10.7207 11.2252 11.8167 10.0966 12.7983 8.96791C13.7268 7.90022 14.1668 6.78893 14.1668 5.62327C14.1668 4.71531 13.8752 3.9819 13.3002 3.38813C12.7261 2.79526 12.0234 2.5 11.1581 2.5C10.6745 2.5 10.1902 2.61449 9.7006 2.85347C9.23727 3.07964 8.80362 3.45584 8.40615 4.00875L8.00016 4.5735L7.59418 4.00875C7.19671 3.45584 6.76306 3.07964 6.29973 2.85347L7.71319 13.4471ZM7.71319 13.4471C7.63393 13.4179 7.5639 13.3729 7.49969 13.3066L7.4914 13.298M7.71319 13.4471L7.4914 13.298M7.4914 13.298L7.4827 13.2898M7.4914 13.298L7.4827 13.2898M7.4827 13.2898L6.47519 12.3441M7.4827 13.2898L6.47519 12.3441M6.04486 11.2153L5.7382 11.5432C5.08694 10.934 4.48122 10.3093 3.9213 9.66902C3.35408 9.02035 2.87823 8.36272 2.49665 7.69574C2.10133 7.00475 1.88611 6.31164 1.88611 5.62327C1.88611 4.77985 2.16311 4.04782 2.72869 3.46379C3.2952 2.87879 4.01171 2.58697 4.84226 2.58697C5.48085 2.58697 6.06356 2.75009 6.57266 3.08761C7.06947 3.41697 7.51436 3.91539 7.91743 4.5496L7.49544 4.81779L7.91673 4.54851C7.93295 4.57389 7.94394 4.58002 7.94882 4.58255L6.04486 11.2153ZM6.04486 11.2153L5.73821 11.5432C6.37758 12.1412 6.97012 12.6969 7.51584 13.2103L7.51581 13.2103M6.04486 11.2153L7.51581 13.2103M7.51581 13.2103L7.52035 13.2145M7.51581 13.2103L7.52035 13.2145M7.52035 13.2145C7.65125 13.3347 7.8185 13.4019 8.00016 13.4019C8.18182 13.4019 8.34907 13.3347 8.47997 13.2145L8.48 13.2145M7.52035 13.2145L8.48 13.2145M8.48 13.2145L8.48449 13.2103M8.48 13.2145L8.48449 13.2103M8.48449 13.2103C9.0302 12.6969 9.62274 12.1412 10.2621 11.5432L9.92057 11.178M8.48449 13.2103L9.92057 11.178M9.92057 11.178L10.2621 11.5432C10.9134 10.934 11.5191 10.3093 12.079 9.66902M9.92057 11.178L12.079 9.66902M6.47519 12.3441C6.47514 12.3441 6.47508 12.344 6.47503 12.344L6.47519 12.3441ZM12.079 9.66902C12.6462 9.02035 13.1221 8.36272 13.5037 7.69574C13.899 7.00475 14.1142 6.31164 14.1142 5.62327C14.1142 4.77985 13.8372 4.04782 13.2716 3.46379C12.7051 2.87879 11.9886 2.58697 11.1581 2.58697C10.5195 2.58697 9.93677 2.75009 9.42766 3.08762C8.93102 3.41686 8.48627 3.91505 8.08331 4.54895C8.06725 4.57396 8.05636 4.58004 8.0515 4.58255L12.079 9.66902ZM8.05143 4.58259C8.02931 4.594 8.01409 4.59652 8.00016 4.59652C7.98623 4.59652 7.97101 4.594 7.94889 4.58259H8.05143Z" fill="black" stroke="black"/>
</svg>
